<svg xmlns="http://www.w3.org/2000/svg" width="1080" height="980" viewBox="0 0 1080 980" font-family="Segoe UI, Helvetica, Arial, sans-serif">
<defs>
  <linearGradient id="hub" x1="0" y1="0" x2="1" y2="1">
    <stop offset="0" stop-color="#0B5FAE"/><stop offset="1" stop-color="#2C97E0"/>
  </linearGradient>
</defs>
<circle cx="540" cy="470" r="360" fill="none" stroke="#C7D6E5" stroke-width="1.5" stroke-dasharray="2 6"/>
<path d="M 388.83,185.69 A 322 322 0 0 1 691.17,185.69 L 632.96,295.18 A 198 198 0 0 0 447.04,295.18 Z" fill="#FFF4C2" stroke="#E8A317" stroke-width="2.5"/>
<polygon points="686.14,254.96 670.51,224.54 653.61,256.33" fill="#0B5FAE"/>
<g transform="translate(540.0,186.0)" fill="none" stroke="#2b3a4a" stroke-width="2" stroke-linecap="round" stroke-linejoin="round"><rect x="-9" y="-10" width="18" height="22" rx="2.5"/><rect x="-5" y="-13" width="10" height="5" rx="1.5"/><path d="M-5 0 l3 3 l6 -7"/></g>
<text x="540.0" y="210.0" text-anchor="middle" dominant-baseline="middle" font-size="21" font-weight="bold" fill="#24292f">Plan</text>
<text x="540.0" y="233.0" text-anchor="middle" dominant-baseline="middle" font-size="15" fill="#57606a">Work Items</text>
<path d="M 710.63,196.93 A 322 322 0 0 1 861.80,458.76 L 737.88,463.09 A 198 198 0 0 0 644.92,302.09 Z" fill="#D8F5DC" stroke="#3AA655" stroke-width="2.5"/>
<polygon points="799.30,489.04 817.83,460.30 781.85,461.55" fill="#0B5FAE"/>
<g transform="translate(765.2,316.0)" fill="none" stroke="#2b3a4a" stroke-width="2" stroke-linecap="round" stroke-linejoin="round"><polyline points="-3,-9 -11,0 -3,9"/><polyline points="3,-9 11,0 3,9"/></g>
<text x="765.2" y="340.0" text-anchor="middle" dominant-baseline="middle" font-size="21" font-weight="bold" fill="#24292f">Code</text>
<text x="765.2" y="363.0" text-anchor="middle" dominant-baseline="middle" font-size="15" fill="#57606a">Git · TFVC</text>
<path d="M 861.80,481.24 A 322 322 0 0 1 710.63,743.07 L 644.92,637.91 A 198 198 0 0 0 737.88,476.91 Z" fill="#E7DEFC" stroke="#7C57E0" stroke-width="2.5"/>
<polygon points="653.16,704.08 687.32,705.76 668.24,675.23" fill="#0B5FAE"/>
<g transform="translate(765.2,564.5)" fill="none" stroke="#2b3a4a" stroke-width="2" stroke-linecap="round" stroke-linejoin="round"><circle cx="-2.5" cy="-2.5" r="7"/><line x1="3" y1="3" x2="10" y2="10"/></g>
<text x="765.2" y="588.5" text-anchor="middle" dominant-baseline="middle" font-size="21" font-weight="bold" fill="#24292f">Review</text>
<text x="765.2" y="611.5" text-anchor="middle" dominant-baseline="middle" font-size="15" fill="#57606a">Pull Requests</text>
<text x="765.2" y="634.5" text-anchor="middle" dominant-baseline="middle" font-size="15" fill="#57606a">Comments</text>
<path d="M 691.17,754.31 A 322 322 0 0 1 388.83,754.31 L 447.04,644.82 A 198 198 0 0 0 632.96,644.82 Z" fill="#D5ECFD" stroke="#2585D6" stroke-width="2.5"/>
<polygon points="393.86,685.04 409.49,715.46 426.39,683.67" fill="#0B5FAE"/>
<g transform="translate(540.0,706.0)" fill="none" stroke="#2b3a4a" stroke-width="2" stroke-linecap="round" stroke-linejoin="round"><path d="M0 -12 C5 -7 6 -1 6 3 L-6 3 C-6 -1 -5 -7 0 -12 Z"/><circle cx="0" cy="-4" r="2.3"/><path d="M-6 3 L-9 9 L-3.5 6.5 Z"/><path d="M6 3 L9 9 L3.5 6.5 Z"/><path d="M-2.2 6 L0 12 L2.2 6 Z"/></g>
<text x="540.0" y="730.0" text-anchor="middle" dominant-baseline="middle" font-size="21" font-weight="bold" fill="#24292f">Build &amp; Release</text>
<text x="540.0" y="753.0" text-anchor="middle" dominant-baseline="middle" font-size="15" fill="#57606a">Pipelines</text>
<path d="M 369.37,743.07 A 322 322 0 0 1 218.20,481.24 L 342.12,476.91 A 198 198 0 0 0 435.08,637.91 Z" fill="#FFE0E0" stroke="#E5484D" stroke-width="2.5"/>
<polygon points="280.70,450.96 262.17,479.70 298.15,478.45" fill="#0B5FAE"/>
<g transform="translate(314.8,576.0)" fill="none" stroke="#2b3a4a" stroke-width="2" stroke-linecap="round" stroke-linejoin="round"><path d="M-3.5 -11 L-3.5 -2 L-9.5 9 a2.2 2.2 0 0 0 2 3.3 L7.5 12.3 a2.2 2.2 0 0 0 2 -3.3 L3.5 -2 L3.5 -11"/><line x1="-5.5" y1="-11" x2="5.5" y2="-11"/><line x1="-6.2" y1="4" x2="6.2" y2="4"/></g>
<text x="314.8" y="600.0" text-anchor="middle" dominant-baseline="middle" font-size="21" font-weight="bold" fill="#24292f">Test</text>
<text x="314.8" y="623.0" text-anchor="middle" dominant-baseline="middle" font-size="15" fill="#57606a">Test Plans</text>
<path d="M 218.20,458.76 A 322 322 0 0 1 369.37,196.93 L 435.08,302.09 A 198 198 0 0 0 342.12,463.09 Z" fill="#C9FAEA" stroke="#1AAE84" stroke-width="2.5"/>
<polygon points="426.84,235.92 392.68,234.24 411.76,264.77" fill="#0B5FAE"/>
<g transform="translate(314.8,316.0)" fill="none" stroke="#2b3a4a" stroke-width="2" stroke-linecap="round" stroke-linejoin="round"><path d="M-8 -11 L4 -11 L9 -6 L9 12 L-8 12 Z"/><path d="M4 -11 L4 -6 L9 -6"/><line x1="-4" y1="-4" x2="1" y2="-4"/><line x1="-4" y1="1" x2="5" y2="1"/><line x1="-4" y1="6" x2="5" y2="6"/></g>
<text x="314.8" y="340.0" text-anchor="middle" dominant-baseline="middle" font-size="21" font-weight="bold" fill="#24292f">Document</text>
<text x="314.8" y="363.0" text-anchor="middle" dominant-baseline="middle" font-size="15" fill="#57606a">Wiki</text>
<circle cx="360.0" cy="158.2" r="5.5" fill="#0B5FAE"/>
<text x="344.0" y="139.8" text-anchor="end" font-size="15.5" font-weight="600" fill="#5A6B7B">readonly mode</text>
<circle cx="720.0" cy="158.2" r="5.5" fill="#0B5FAE"/>
<text x="736.0" y="139.8" text-anchor="start" font-size="15.5" font-weight="600" fill="#5A6B7B">dry-run preview</text>
<circle cx="900.0" cy="470.0" r="5.5" fill="#0B5FAE"/>
<text x="922.0" y="475.0" text-anchor="start" font-size="15.5" font-weight="600" fill="#5A6B7B">rate limit</text>
<circle cx="720.0" cy="781.8" r="5.5" fill="#0B5FAE"/>
<text x="736.0" y="808.2" text-anchor="start" font-size="15.5" font-weight="600" fill="#5A6B7B">audit log</text>
<circle cx="360.0" cy="781.8" r="5.5" fill="#0B5FAE"/>
<text x="344.0" y="808.2" text-anchor="end" font-size="15.5" font-weight="600" fill="#5A6B7B">PAT stays local</text>
<circle cx="180.0" cy="470.0" r="5.5" fill="#0B5FAE"/>
<text x="158.0" y="475.0" text-anchor="end" font-size="15.5" font-weight="600" fill="#5A6B7B">domain selection</text>
<circle cx="540" cy="470" r="190" fill="url(#hub)"/>
<text x="540" y="412" text-anchor="middle" dominant-baseline="middle" font-size="30" font-weight="bold" fill="#fff">Azure DevOps</text>
<text x="540" y="440" text-anchor="middle" dominant-baseline="middle" font-size="30" font-weight="bold" fill="#fff">MCP Server</text>
<line x1="482" y1="466" x2="598" y2="466" stroke="#4A8BC2" stroke-width="1"/>
<text x="540" y="488" text-anchor="middle" dominant-baseline="middle" font-size="17" fill="#DCEBFA">for AI assistants</text>
<text x="540" y="516" text-anchor="middle" dominant-baseline="middle" font-size="14" fill="#BcD8F2">tools · prompts · resources</text>
<text x="540" y="544" text-anchor="middle" dominant-baseline="middle" font-size="14" fill="#A9CCEC">on-premises</text>
<text x="540" y="958" text-anchor="middle" font-size="15" fill="#8A98A6">Governance layer enforced server-side · continuous feedback loop</text>
</svg>